<svg width="56" height="55" viewBox="0 0 56 55" fill="none" xmlns="http://www.w3.org/2000/svg">
<g clip-path="url(#clip0_4668_372)">
<path d="M0.5 23.7935V51.1568C0.5 52.1817 0.909938 53.1553 1.62733 53.8727C2.34472 54.59 3.3354 55 4.34317 55H51.6568C52.6817 55 53.6553 54.59 54.3727 53.8727C55.0901 53.1553 55.5 52.1646 55.5 51.1568V23.7935H0.5Z" fill="white"/>
<path d="M29.7593 20.3263H54.868L49.5559 2.6306C49.2997 1.84489 48.7873 1.16166 48.1211 0.700479C47.4379 0.222218 46.6351 -0.0169124 45.7981 0.0172491H29.7252L29.7593 20.3263Z" fill="white"/>
<path d="M1.14911 20.3261H26.292V0H10.2019C9.39911 0 8.61339 0.256211 7.96433 0.717391C7.31526 1.17857 6.81992 1.84472 6.58079 2.61335L1.14911 20.3261Z" fill="white"/>
</g>
<defs>
<clipPath id="clip0_4668_372">
<rect width="55" height="55" fill="white" transform="translate(0.5)"/>
</clipPath>
</defs>
</svg>
